PathFileType	4	(X/Y/Z)	traj.trc
DataRate	CameraRate	NumFrames	NumMarkers	Units	OrigDataRate	OrigDataStartFrame	OrigNumFrames
30.00	30.00	5	1	mm	30.00	1	5
Frame#	Time	wrist		
		X1	Y1	Z1

0	0.0	117.1875	508.3333333333333	1576666.6666666667
1	0.25	117.1875	508.3333333333333	1576666.6666666667
2	0.5	147.015380859375	518.0013020833333	1410398.6979166665
3	0.75	229.87060546875	544.8567708333333	948543.2291666667
4	1.0	312.725830078125	571.7122395833333	486687.76041666686
